<svg width="110" height="110" viewBox="0 0 110 110" fill="none" xmlns="http://www.w3.org/2000/svg">
<rect x="4.99982" y="55" width="99" height="48" stroke="#EAEAEA" stroke-width="2"/>
<line x1="7.99982" y1="49" x2="7.99982" y2="43" stroke="#EAEAEA" stroke-width="2"/>
<line x1="98.9998" y1="49" x2="98.9998" y2="43" stroke="#EAEAEA" stroke-width="2"/>
<line x1="99.9998" y1="44" x2="8.99982" y2="44" stroke="#EAEAEA" stroke-width="2"/>
<line x1="12.9998" y1="38.3398" x2="12.9998" y2="32.9992" stroke="#EAEAEA" stroke-width="2"/>
<line x1="93.9998" y1="38.3398" x2="93.9998" y2="32.9992" stroke="#EAEAEA" stroke-width="2"/>
<line x1="94.9998" y1="34" x2="13.9998" y2="34" stroke="#EAEAEA" stroke-width="2"/>
<line x1="17.9998" y1="27.6797" x2="17.9998" y2="22.9984" stroke="#EAEAEA" stroke-width="2"/>
<line x1="88.9998" y1="27.6797" x2="88.9998" y2="22.9984" stroke="#EAEAEA" stroke-width="2"/>
<line x1="89.9998" y1="24" x2="18.9998" y2="24" stroke="#EAEAEA" stroke-width="2"/>
<line x1="22.9998" y1="18.0195" x2="22.9998" y2="13.9976" stroke="#EAEAEA" stroke-width="2"/>
<line x1="83.9998" y1="18.0195" x2="83.9998" y2="13.9976" stroke="#EAEAEA" stroke-width="2"/>
<line x1="84.9998" y1="15" x2="23.9998" y2="15" stroke="#EAEAEA" stroke-width="2"/>
<line x1="27.9998" y1="8.68945" x2="27.9998" y2="5.32682" stroke="#EAEAEA" stroke-width="2"/>
<line x1="78.9998" y1="8.68945" x2="78.9998" y2="5.32682" stroke="#EAEAEA" stroke-width="2"/>
<line x1="79.9998" y1="6.33008" x2="28.9998" y2="6.33008" stroke="#EAEAEA" stroke-width="2"/>
</svg>
