<svg width="40" height="40" viewBox="0 0 40 40" fill="none" xmlns="http://www.w3.org/2000/svg">
<path d="M11.4277 12.746C11.4277 11.7817 12.2095 11 13.1738 11H26.8246C27.7889 11 28.5706 11.7817 28.5706 12.746H11.4277Z" fill="#EAEAEA"/>
<path d="M10.4766 15.4453C10.4766 14.4809 11.2583 13.6992 12.2226 13.6992H27.7781C28.7425 13.6992 29.5242 14.4809 29.5242 15.4453H10.4766Z" fill="#EAEAEA"/>
<path d="M11 18.3975C11 17.8452 11.4477 17.3975 12 17.3975H28C28.5523 17.3975 29 17.8452 29 18.3975V26.6197C29 27.172 28.5523 27.6197 28 27.6197H12C11.4477 27.6197 11 27.172 11 26.6197V18.3975Z" fill="#EAEAEA" stroke="#EAEAEA" stroke-width="2"/>
</svg>
