<svg width="200" height="65" viewBox="0 0 200 65" fill="none" xmlns="http://www.w3.org/2000/svg">
<g clip-path="url(#clip0_1756_7682)">
<path d="M209.344 172.827L111.113 229.54L12.8828 172.827L12.8828 59.3998L111.113 2.6863L209.344 59.3998L209.344 172.827Z" stroke="#747474" stroke-width="1.18868"/>
<line x1="13.2593" y1="171.845" x2="184.846" y2="45.7081" stroke="#747474" stroke-width="1.18868"/>
<line x1="13.1734" y1="171.922" x2="148.264" y2="24.6853" stroke="#747474" stroke-width="1.18868"/>
<line x1="13.0993" y1="172.022" x2="112.33" y2="3.62823" stroke="#747474" stroke-width="1.18868"/>
<line y1="-0.59434" x2="212.961" y2="-0.59434" transform="matrix(-0.805719 -0.592298 -0.592298 0.805719 209 172.324)" stroke="#747474" stroke-width="1.18868"/>
<line y1="-0.59434" x2="199.82" y2="-0.59434" transform="matrix(-0.67606 -0.736846 -0.736846 0.67606 209 172.324)" stroke="#747474" stroke-width="1.18868"/>
<line y1="-0.59434" x2="195.456" y2="-0.59434" transform="matrix(-0.507688 -0.861541 -0.861541 0.507688 209 172.324)" stroke="#747474" stroke-width="1.18868"/>
</g>
<defs>
<clipPath id="clip0_1756_7682">
<rect width="200" height="65" fill="white" transform="translate(200 65) rotate(-180)"/>
</clipPath>
</defs>
</svg>
