<svg width="200" height="65" viewBox="0 0 200 65" fill="none" xmlns="http://www.w3.org/2000/svg">
<g clip-path="url(#clip0_1756_7670)">
<path d="M221.981 80.3302C221.981 58.3942 209.663 38.4795 189.637 24.0254C169.612 9.57191 141.917 0.613235 111.297 0.613235C80.6778 0.613235 52.9824 9.57191 32.9571 24.0254C12.9309 38.4795 0.613208 58.3942 0.613208 80.3302C0.613208 102.266 12.9309 122.181 32.9571 136.635C52.9824 151.089 80.6778 160.047 111.297 160.047C141.917 160.047 169.612 151.089 189.637 136.635C209.663 122.181 221.981 102.266 221.981 80.3302Z" stroke="#747474" stroke-width="1.22642"/>
<path d="M186.415 80.3302C186.415 36.2692 152.75 0.613235 111.298 0.613235C69.8446 0.613235 36.1796 36.2692 36.1796 80.3302C36.1796 124.391 69.8446 160.047 111.298 160.047C152.75 160.047 186.415 124.391 186.415 80.3302Z" stroke="#747474" stroke-width="1.22642"/>
<line y1="-0.613208" x2="206.651" y2="-0.613208" transform="matrix(1 8.74228e-08 8.74228e-08 -1 7.9707 51.5094)" stroke="#747474" stroke-width="1.22642"/>
</g>
<defs>
<clipPath id="clip0_1756_7670">
<rect width="200" height="65" fill="white" transform="matrix(1 0 0 -1 0 65)"/>
</clipPath>
</defs>
</svg>
