<svg width="328" height="106" viewBox="0 0 328 106" fill="none" xmlns="http://www.w3.org/2000/svg">
<g clip-path="url(#clip0_1630_4907)">
<path d="M362 -25C362 10.7725 341.913 43.2488 309.255 66.8201C276.598 90.3905 231.433 105 181.5 105C131.567 105 86.402 90.3905 53.7454 66.8201C21.0874 43.2488 1 10.7725 1 -25C1 -60.7725 21.0874 -93.2488 53.7454 -116.82C86.402 -140.39 131.567 -155 181.5 -155C231.433 -155 276.598 -140.39 309.255 -116.82C341.913 -93.2488 362 -60.7725 362 -25Z" stroke="#747474" stroke-width="2"/>
<path d="M304 -25C304 46.8534 249.1 105 181.5 105C113.9 105 59 46.8534 59 -25C59 -96.8534 113.9 -155 181.5 -155C249.1 -155 304 -96.8534 304 -25Z" stroke="#747474" stroke-width="2"/>
<line x1="13" y1="21" x2="350" y2="21" stroke="#747474" stroke-width="2"/>
</g>
<defs>
<clipPath id="clip0_1630_4907">
<rect width="328" height="106" fill="white"/>
</clipPath>
</defs>
</svg>
