<svg width="28" height="28" viewBox="0 0 28 28" fill="none" xmlns="http://www.w3.org/2000/svg">
<path d="M23.97 20.33C23.97 20.69 23.89 21.06 23.72 21.42C23.55 21.78 23.33 22.12 23.04 22.44C22.55 22.98 22.01 23.37 21.4 23.62C20.8 23.87 20.15 24 19.45 24C18.43 24 17.34 23.76 16.19 23.27C15.04 22.78 13.89 22.12 12.75 21.29C11.6 20.45 10.51 19.52 9.47 18.49C8.44 17.45 7.51 16.36 6.68 15.22C5.86 14.08 5.2 12.94 4.72 11.81C4.24 10.67 4 9.58 4 8.54C4 7.86 4.12 7.21 4.36 6.61C4.6 6 4.98 5.44 5.51 4.94C6.15 4.31 6.85 4 7.59 4C7.87 4 8.15 4.06 8.4 4.18C8.66 4.3 8.89 4.48 9.07 4.74L11.39 8.01C11.57 8.26 11.7 8.49 11.79 8.71C11.88 8.92 11.93 9.13 11.93 9.32C11.93 9.56 11.86 9.8 11.72 10.03C11.59 10.26 11.4 10.5 11.16 10.74L10.4 11.53C10.29 11.64 10.24 11.77 10.24 11.93C10.24 12.01 10.25 12.08 10.27 12.16C10.3 12.24 10.33 12.3 10.35 12.36C10.53 12.69 10.84 13.12 11.28 13.64C11.73 14.16 12.21 14.69 12.73 15.22C13.27 15.75 13.79 16.24 14.32 16.69C14.84 17.13 15.27 17.43 15.61 17.61C15.66 17.63 15.72 17.66 15.79 17.69C15.87 17.72 15.95 17.73 16.04 17.73C16.21 17.73 16.34 17.67 16.45 17.56L17.21 16.81C17.46 16.56 17.7 16.37 17.93 16.25C18.16 16.11 18.39 16.04 18.64 16.04C18.83 16.04 19.03 16.08 19.25 16.17C19.47 16.26 19.7 16.39 19.95 16.56L23.26 18.91C23.52 19.09 23.7 19.3 23.81 19.55C23.91 19.8 23.97 20.05 23.97 20.33Z" fill="white"/>
</svg>
