<svg width="28" height="28" viewBox="0 0 28 28" fill="none" xmlns="http://www.w3.org/2000/svg">
<path d="M19 5.5H9C6 5.5 4 7 4 10.5V17.5C4 21 6 22.5 9 22.5H19C22 22.5 24 21 24 17.5V10.5C24 7 22 5.5 19 5.5ZM19.47 11.59L16.34 14.09C15.68 14.62 14.84 14.88 14 14.88C13.16 14.88 12.31 14.62 11.66 14.09L8.53 11.59C8.21 11.33 8.16 10.85 8.41 10.53C8.67 10.21 9.14 10.15 9.46 10.41L12.59 12.91C13.35 13.52 14.64 13.52 15.4 12.91L18.53 10.41C18.85 10.15 19.33 10.2 19.58 10.53C19.84 10.85 19.79 11.33 19.47 11.59Z" fill="white"/>
</svg>
