<svg width="86" height="86" viewBox="0 0 86 86" fill="none" xmlns="http://www.w3.org/2000/svg">
<g clip-path="url(#clip0_1605_365)">
<rect width="86" height="86" fill="white"/>
<path d="M0 43V86H86V0H0V43ZM83.2971 43V83.301H2.70286V2.699H83.2971V43Z" fill="black"/>
<path d="M8.12147 21.4325C8.24433 21.7392 13.6255 36.412 13.908 37.1971C14.0309 37.5284 14.0432 37.5406 15.0506 37.5406H16.0703L16.5618 36.277C16.8198 35.59 17.8886 32.8296 18.9329 30.1429C19.9772 27.4562 20.8495 25.2724 20.8863 25.2724C20.9232 25.2724 21.6358 27.1372 22.4712 29.4068C23.3066 31.6764 24.3263 34.449 24.7318 35.5409L25.4566 37.5406H27.3732L28.0612 35.6636C28.442 34.6453 29.7935 30.9526 31.0589 27.4807L33.3809 21.1626L32.2138 21.1258C31.5626 21.1135 31.0098 21.1381 30.9606 21.1871C30.9115 21.2362 29.8795 24.1438 28.6755 27.6279C27.4715 31.1121 26.4518 33.9829 26.4149 33.9829C26.378 33.9829 25.3215 31.0998 24.0683 27.5666L21.7832 21.1626H19.9895L17.6429 27.5666C16.3529 31.0998 15.2718 33.9829 15.2349 33.9829C15.198 33.9829 14.2029 31.0998 13.0112 27.5666L10.8489 21.1626L9.41147 21.1258L7.98633 21.089L8.12147 21.4325Z" fill="black"/>
<path d="M40.6664 27.996C38.6024 31.7868 36.5999 35.4796 36.2067 36.2157L35.4941 37.5406H38.2093L39.2167 35.5164L40.2364 33.4921H51.4164L52.4361 35.5164L53.4436 37.5406H56.5396L55.999 36.5714C55.7164 36.0439 53.6524 32.3512 51.4164 28.364L47.3621 21.1135H44.4136L40.6664 27.996ZM48.0624 27.2108L50.237 31.3452L48.0379 31.382C46.8216 31.3943 44.8313 31.3943 43.615 31.382L41.4158 31.3452L43.5904 27.2108C44.7821 24.9289 45.7896 23.0764 45.8264 23.0764C45.8633 23.0764 46.8707 24.9289 48.0624 27.2108Z" fill="black"/>
<path d="M58.7749 21.1995C58.7995 21.2485 60.6546 23.3341 62.8906 25.8246L66.9572 30.3638V37.5407H69.66V30.2411L73.6283 25.8736C75.8029 23.4691 77.658 21.4203 77.7563 21.3099C77.9037 21.1136 77.7932 21.1013 76.2206 21.1013H74.5129L71.5029 24.7204C69.8443 26.7079 68.4683 28.3395 68.4315 28.3395C68.3946 28.3395 66.9572 26.7079 65.2372 24.7204L62.1043 21.1013H60.4089C59.4752 21.1013 58.738 21.1504 58.7749 21.1995Z" fill="black"/>
<path d="M10.0751 48.6188C9.25196 48.8397 8.7851 49.1709 8.50253 49.7475C8.0111 50.7658 7.96196 51.4405 8.0111 57.2311C8.06025 62.6168 8.06024 62.7641 8.33053 63.3161C8.67453 64.0399 9.27653 64.4448 10.4068 64.7024C11.1562 64.8742 12.1882 64.8987 17.4711 64.8987C22.9874 64.8987 23.7614 64.8742 24.6705 64.6656C25.4322 64.5061 25.7762 64.3589 26.0588 64.089C26.9557 63.2302 27.0171 62.7763 27.0294 56.6422C27.0294 50.7412 26.968 50.1401 26.2062 49.3058C25.9616 49.0397 25.6646 48.8267 25.334 48.6802C24.6828 48.4716 10.8491 48.4103 10.0751 48.6188ZM24.3265 56.679V62.5678H10.6894V50.7903H24.3265V56.679Z" fill="black"/>
<path d="M35.3829 56.679V64.8987H37.8523L37.8154 58.3598L37.7786 51.8331L38.7 52.7778C39.2037 53.293 42.4103 56.2374 45.8257 59.3044L52.03 64.8987H53.4429V48.4594H50.9734L51.0103 54.7407C51.0349 58.2003 51.1086 61.1447 51.1577 61.2796C51.2069 61.4146 51.0963 61.3041 50.8997 61.0342C50.3469 60.3104 49.6343 59.6479 43.1229 53.8083L37.1643 48.4594H35.3829V56.679Z" fill="black"/>
<path d="M62.0428 56.679V64.8987H77.8914V62.6904H64.7457V57.4151H72.7314V55.2069H64.7457V50.6676H77.7686V48.4594H62.0428V56.679Z" fill="black"/>
</g>
<defs>
<clipPath id="clip0_1605_365">
<rect width="86" height="86" fill="white"/>
</clipPath>
</defs>
</svg>
