<svg width="32" height="32" viewBox="0 0 32 32" fill="none" xmlns="http://www.w3.org/2000/svg">
<path d="M13.8102 2.1898L2.18978 13.8102C0.980397 15.0196 0.980397 16.9804 2.18978 18.1898L13.8102 29.8102C15.0196 31.0196 16.9804 31.0196 18.1898 29.8102L29.8102 18.1898C31.0196 16.9804 31.0196 15.0196 29.8102 13.8102L18.1898 2.1898C16.9804 0.980415 15.0196 0.980416 13.8102 2.1898Z" fill="#747474"/>
<path d="M16.0356 25.1631C21.0964 25.1631 25.1991 21.0605 25.1991 15.9997C25.1991 10.9388 21.0964 6.83618 16.0356 6.83618C10.9748 6.83618 6.87213 10.9388 6.87213 15.9997C6.87213 21.0605 10.9748 25.1631 16.0356 25.1631Z" fill="white"/>
<path d="M18.7466 10.2737H13.4046C11.6942 10.2737 10.3077 11.6602 10.3077 13.3705V18.7125C10.3077 20.4228 11.6942 21.8093 13.4046 21.8093H18.7466C20.4569 21.8093 21.8434 20.4228 21.8434 18.7125V13.3705C21.8434 11.6602 20.4569 10.2737 18.7466 10.2737Z" fill="#747474"/>
<path d="M16.0193 19.9781C18.2245 19.9781 20.0121 18.1904 20.0121 15.9853C20.0121 13.7801 18.2245 11.9924 16.0193 11.9924C13.8141 11.9924 12.0265 13.7801 12.0265 15.9853C12.0265 18.1904 13.8141 19.9781 16.0193 19.9781Z" fill="white"/>
<path d="M15.4192 14.9L15.0491 15.2701C14.646 15.6732 14.646 16.3268 15.0491 16.7299L15.4192 17.1C15.8223 17.5031 16.4759 17.5031 16.879 17.1L17.2491 16.7299C17.6522 16.3268 17.6522 15.6732 17.2491 15.2701L16.879 14.9C16.4759 14.4969 15.8223 14.4969 15.4192 14.9Z" fill="#747474"/>
</svg>
