<svg width="26" height="23" viewBox="0 0 26 23" fill="none" xmlns="http://www.w3.org/2000/svg">
<path fill-rule="evenodd" clip-rule="evenodd" d="M22.9711 0.89756C23.2814 0.766958 23.621 0.721914 23.9547 0.767116C24.2883 0.812318 24.6037 0.946115 24.8681 1.15458C25.1324 1.36304 25.3361 1.63855 25.4578 1.95243C25.5796 2.26632 25.615 2.60709 25.5603 2.9393L22.7124 20.2137C22.4362 21.88 20.6079 22.8356 19.0798 22.0055C17.8015 21.3112 15.9029 20.2413 14.1952 19.125C13.3413 18.5662 10.7257 16.7769 11.0472 15.5036C11.3234 14.415 15.7183 10.324 18.2297 7.8917C19.2154 6.93613 18.7658 6.38488 17.6018 7.26386C14.71 9.44623 10.0702 12.765 8.53581 13.6992C7.18218 14.5229 6.47649 14.6636 5.63267 14.5229C4.09321 14.2668 2.6655 13.87 1.50023 13.3866C-0.0743931 12.7336 0.00220338 10.5688 1.49897 9.93846L22.9711 0.89756Z" fill="#232125"/>
</svg>
