<svg width="28" height="28" viewBox="0 0 28 28" fill="none" xmlns="http://www.w3.org/2000/svg">
<path d="M23.3343 4.54342C22.1117 3.30956 20.6559 2.33134 19.0515 1.66577C17.4471 1.00021 15.7263 0.660613 13.9893 0.666769C6.711 0.666769 0.779349 6.59675 0.772682 13.8767C0.772682 16.2084 1.38268 18.4767 2.53434 20.485L0.666016 27.3334L7.67266 25.4967C9.611 26.5515 11.7825 27.1045 13.9893 27.105H13.996C21.276 27.105 27.2059 21.175 27.2126 13.8884C27.2143 12.1518 26.8723 10.4321 26.2064 8.82821C25.5405 7.22437 24.5655 5.76814 23.3343 4.54342ZM13.9893 24.8684C12.021 24.869 10.0888 24.3394 8.39599 23.335L7.99599 23.095L3.83934 24.185L4.94934 20.13L4.68934 19.7117C3.58902 17.9623 3.00709 15.9368 3.01101 13.8701C3.01101 7.82675 7.93933 2.89676 13.996 2.89676C15.4389 2.89417 16.868 3.17722 18.201 3.72958C19.534 4.28194 20.7445 5.09269 21.7626 6.11509C22.7843 7.1335 23.5943 8.34412 24.1458 9.67713C24.6973 11.0101 24.9795 12.4391 24.9759 13.8817C24.9693 19.9467 20.041 24.8684 13.9893 24.8684ZM20.0143 16.6451C19.686 16.4801 18.0643 15.6817 17.7593 15.5684C17.456 15.4601 17.2343 15.4034 17.0176 15.7334C16.796 16.0617 16.1626 16.8101 15.9726 17.0251C15.7826 17.2467 15.586 17.2717 15.256 17.1084C14.9276 16.9417 13.8626 16.5951 12.6026 15.4667C11.6193 14.5917 10.961 13.5084 10.7643 13.1801C10.5743 12.8501 10.746 12.6734 10.911 12.5084C11.056 12.3617 11.2393 12.1217 11.4043 11.9317C11.571 11.7417 11.626 11.6017 11.7343 11.3817C11.8426 11.1584 11.791 10.9684 11.7093 10.8034C11.626 10.6384 10.9677 9.01008 10.6893 8.35341C10.4227 7.70508 10.151 7.79508 9.94766 7.78675C9.75766 7.77508 9.53599 7.77508 9.31432 7.77508C9.14693 7.77924 8.9822 7.81796 8.83048 7.8888C8.67876 7.95964 8.54332 8.06108 8.43266 8.18675C8.12933 8.51675 7.281 9.31508 7.281 10.9434C7.281 12.5717 8.46433 14.1367 8.63099 14.3584C8.79433 14.5801 10.9543 17.9117 14.2693 19.345C15.0526 19.6867 15.6693 19.8884 16.151 20.0417C16.9426 20.295 17.6576 20.2567 18.2276 20.175C18.861 20.0784 20.1793 19.375 20.4576 18.6034C20.731 17.8301 20.731 17.1701 20.6476 17.0317C20.566 16.8917 20.3443 16.8101 20.0143 16.6451Z" fill="#232125"/>
</svg>
