<svg width="200" height="60" fill="none" xmlns="http://www.w3.org/2000/svg"><g clip-path="url(#a)"><g filter="url(#b)"><path d="M117.698 34.041 96.754-1.062 40.707 93.333l44.248-2.95 32.743-56.342Z" fill="#fff" fill-opacity=".15"/></g><g filter="url(#c)"><path d="M61.651 34.041 40.707-1.062-15.34 93.333l44.248-2.95L61.65 34.041Z" fill="#fff" fill-opacity=".15"/></g><g filter="url(#d)"><path d="M173.745 34.041 152.801-1.062 96.754 93.333l44.248-2.95 32.743-56.342Z" fill="#fff" fill-opacity=".15"/></g><g filter="url(#e)"><path d="m199.706 79.764-20.944-35.103-56.047 94.395 44.248-2.95 32.743-56.342Z" fill="#fff" fill-opacity=".15"/></g></g><defs><filter id="b" x="23.008" y="-18.761" width="112.388" height="129.794" filterUnits="userSpaceOnUse" color-interpolation-filters="sRGB"><feFlood flood-opacity="0" result="BackgroundImageFix"/><feGaussianBlur in="BackgroundImageFix" stdDeviation="8.85"/><feComposite in2="SourceAlpha" operator="in" result="effect1_backgroundBlur_1756_7696"/><feBlend in="SourceGraphic" in2="effect1_backgroundBlur_1756_7696" result="shape"/></filter><filter id="c" x="-33.039" y="-18.761" width="112.388" height="129.793" filterUnits="userSpaceOnUse" color-interpolation-filters="sRGB"><feFlood flood-opacity="0" result="BackgroundImageFix"/><feGaussianBlur in="BackgroundImageFix" stdDeviation="8.85"/><feComposite in2="SourceAlpha" operator="in" result="effect1_backgroundBlur_1756_7696"/><feBlend in="SourceGraphic" in2="effect1_backgroundBlur_1756_7696" result="shape"/></filter><filter id="d" x="79.055" y="-18.761" width="112.388" height="129.793" filterUnits="userSpaceOnUse" color-interpolation-filters="sRGB"><feFlood flood-opacity="0" result="BackgroundImageFix"/><feGaussianBlur in="BackgroundImageFix" stdDeviation="8.85"/><feComposite in2="SourceAlpha" operator="in" result="effect1_backgroundBlur_1756_7696"/><feBlend in="SourceGraphic" in2="effect1_backgroundBlur_1756_7696" result="shape"/></filter><filter id="e" x="105.016" y="26.962" width="112.388" height="129.794" filterUnits="userSpaceOnUse" color-interpolation-filters="sRGB"><feFlood flood-opacity="0" result="BackgroundImageFix"/><feGaussianBlur in="BackgroundImageFix" stdDeviation="8.85"/><feComposite in2="SourceAlpha" operator="in" result="effect1_backgroundBlur_1756_7696"/><feBlend in="SourceGraphic" in2="effect1_backgroundBlur_1756_7696" result="shape"/></filter><clipPath id="a"><path fill="#fff" transform="matrix(1 0 0 -1 0 60)" d="M0 0h200v60H0z"/></clipPath></defs></svg>