<svg width="339" height="103" fill="none" xmlns="http://www.w3.org/2000/svg"><g clip-path="url(#a)"><g filter="url(#b)"><path d="M199.5 44 164 103.5l-95-160 75 5L199.5 44Z" fill="#fff" fill-opacity=".15"/></g><g filter="url(#c)"><path d="M104.5 44 69 103.5l-95-160 75 5L104.5 44Z" fill="#fff" fill-opacity=".15"/></g><g filter="url(#d)"><path d="M294.5 44 259 103.5l-95-160 75 5L294.5 44Z" fill="#fff" fill-opacity=".15"/></g><g filter="url(#e)"><path d="M338.5-33.5 303 26l-95-160 75 5 55.5 95.5Z" fill="#fff" fill-opacity=".15"/></g></g><defs><filter id="b" x="39" y="-86.5" width="190.5" height="220" filterUnits="userSpaceOnUse" color-interpolation-filters="sRGB"><feFlood flood-opacity="0" result="BackgroundImageFix"/><feGaussianBlur in="BackgroundImageFix" stdDeviation="15"/><feComposite in2="SourceAlpha" operator="in" result="effect1_backgroundBlur_1630_4936"/><feBlend in="SourceGraphic" in2="effect1_backgroundBlur_1630_4936" result="shape"/></filter><filter id="c" x="-56" y="-86.5" width="190.5" height="220" filterUnits="userSpaceOnUse" color-interpolation-filters="sRGB"><feFlood flood-opacity="0" result="BackgroundImageFix"/><feGaussianBlur in="BackgroundImageFix" stdDeviation="15"/><feComposite in2="SourceAlpha" operator="in" result="effect1_backgroundBlur_1630_4936"/><feBlend in="SourceGraphic" in2="effect1_backgroundBlur_1630_4936" result="shape"/></filter><filter id="d" x="134" y="-86.5" width="190.5" height="220" filterUnits="userSpaceOnUse" color-interpolation-filters="sRGB"><feFlood flood-opacity="0" result="BackgroundImageFix"/><feGaussianBlur in="BackgroundImageFix" stdDeviation="15"/><feComposite in2="SourceAlpha" operator="in" result="effect1_backgroundBlur_1630_4936"/><feBlend in="SourceGraphic" in2="effect1_backgroundBlur_1630_4936" result="shape"/></filter><filter id="e" x="178" y="-164" width="190.5" height="220" filterUnits="userSpaceOnUse" color-interpolation-filters="sRGB"><feFlood flood-opacity="0" result="BackgroundImageFix"/><feGaussianBlur in="BackgroundImageFix" stdDeviation="15"/><feComposite in2="SourceAlpha" operator="in" result="effect1_backgroundBlur_1630_4936"/><feBlend in="SourceGraphic" in2="effect1_backgroundBlur_1630_4936" result="shape"/></filter><clipPath id="a"><path fill="#fff" d="M0 0h339v103H0z"/></clipPath></defs></svg>