<svg width="328" height="106" fill="none" xmlns="http://www.w3.org/2000/svg"><g clip-path="url(#a)" stroke="#747474" stroke-width="2"><path d="M362-25c0 35.773-20.087 68.249-52.745 91.82C276.598 90.39 231.433 105 181.5 105c-49.933 0-95.098-14.61-127.755-38.18C21.087 43.25 1 10.773 1-25c0-35.773 20.087-68.249 52.745-91.82C86.402-140.39 131.567-155 181.5-155c49.933 0 95.098 14.61 127.755 38.18C341.913-93.249 362-60.773 362-25Z"/><path d="M304-25c0 71.853-54.9 130-122.5 130S59 46.853 59-25c0-71.853 54.9-130 122.5-130S304-96.853 304-25ZM13 21h337"/></g><defs><clipPath id="a"><path fill="#fff" d="M0 0h328v106H0z"/></clipPath></defs></svg>