<svg width="200" height="65" fill="none" xmlns="http://www.w3.org/2000/svg"><g clip-path="url(#a)" stroke="#747474" stroke-width="1.226"><path d="M221.981 80.33c0-21.936-12.318-41.85-32.344-56.305C169.612 9.572 141.917.613 111.297.613c-30.62 0-58.315 8.959-78.34 23.412C12.931 38.48.613 58.395.613 80.33c0 21.936 12.318 41.851 32.344 56.305 20.025 14.454 47.72 23.412 78.34 23.412 30.62 0 58.315-8.958 78.34-23.412 20.026-14.454 32.344-34.369 32.344-56.305Z"/><path d="M186.415 80.33c0-44.06-33.665-79.717-75.117-79.717C69.845.613 36.18 36.27 36.18 80.33s33.665 79.717 75.118 79.717c41.452 0 75.117-35.656 75.117-79.717ZM7.97 52.122h206.652"/></g><defs><clipPath id="a"><path fill="#fff" transform="matrix(1 0 0 -1 0 65)" d="M0 0h200v65H0z"/></clipPath></defs></svg>