<svg width="86" height="86" fill="none" xmlns="http://www.w3.org/2000/svg"><g clip-path="url(#a)"><path fill="#fff" d="M0 0h86v86H0z"/><path d="M0 43v43h86V0H0v43Zm83.297 0v40.301H2.703V2.699h80.594V43Z" fill="#000"/><path d="M8.121 21.433c.123.306 5.505 14.979 5.787 15.764.123.331.135.344 1.143.344h1.02l.49-1.264c.259-.687 1.328-3.447 2.372-6.134 1.044-2.687 1.916-4.87 1.953-4.87.037 0 .75 1.864 1.585 4.134.836 2.27 1.855 5.042 2.26 6.134l.726 2h1.916l.688-1.877c.381-1.019 1.733-4.711 2.998-8.183l2.322-6.318-1.167-.037c-.651-.013-1.204.012-1.253.061-.05.05-1.081 2.957-2.285 6.44-1.204 3.485-2.224 6.356-2.261 6.356-.037 0-1.093-2.883-2.347-6.416l-2.285-6.404H19.99l-2.346 6.404c-1.29 3.533-2.371 6.416-2.408 6.416-.037 0-1.032-2.883-2.224-6.416l-2.162-6.404-1.438-.037-1.425-.037.135.344Zm32.545 6.563c-2.064 3.79-4.066 7.484-4.46 8.22l-.712 1.325h2.715l1.008-2.025 1.02-2.024h11.18l1.02 2.024 1.007 2.025h3.096l-.541-.97c-.283-.527-2.347-4.22-4.583-8.207l-4.054-7.25h-2.948l-3.748 6.882Zm7.396-.785 2.175 4.134-2.2.037c-1.215.012-3.206.012-4.422 0l-2.2-.037 2.175-4.134c1.192-2.282 2.2-4.135 2.236-4.135.037 0 1.045 1.853 2.236 4.135ZM58.775 21.2c.025.049 1.88 2.134 4.116 4.625l4.066 4.539v7.177h2.703v-7.3l3.968-4.367c2.175-2.405 4.03-4.454 4.128-4.564.148-.196.037-.209-1.535-.209h-1.708l-3.01 3.62c-1.659 1.987-3.035 3.619-3.072 3.619-.036 0-1.474-1.632-3.194-3.62l-3.133-3.619H60.41c-.934 0-1.671.05-1.634.099Zm-48.7 27.419c-.823.22-1.29.552-1.572 1.129-.492 1.018-.541 1.693-.492 7.483.05 5.386.05 5.533.32 6.085.344.724.946 1.129 2.076 1.386.75.172 1.781.197 7.064.197 5.516 0 6.29-.025 7.2-.233.761-.16 1.105-.307 1.388-.577.897-.859.958-1.313.97-7.447 0-5.9-.061-6.502-.823-7.336a2.635 2.635 0 0 0-.872-.626c-.651-.208-14.485-.27-15.259-.061Zm14.252 8.06v5.889H10.688V50.79h13.637v5.889Zm11.056 0v8.22h2.47l-.038-6.54-.036-6.526.921.945c.504.515 3.71 3.46 7.126 6.526L52.03 64.9h1.413V48.46h-2.47l.037 6.282c.025 3.46.099 6.404.148 6.539.049.135-.062.024-.258-.246-.553-.724-1.266-1.386-7.777-7.226l-5.959-5.349h-1.781v8.22Zm26.66 0v8.22H77.89V62.69H64.746v-5.275h7.985v-2.208h-7.985v-4.54h13.023V48.46H62.043v8.22Z" fill="#000"/></g><defs><clipPath id="a"><path fill="#fff" d="M0 0h86v86H0z"/></clipPath></defs></svg>