<svg width="26" height="23" fill="none" xmlns="http://www.w3.org/2000/svg"><path fill-rule="evenodd" clip-rule="evenodd" d="M22.971.898a1.884 1.884 0 0 1 2.59 2.041l-2.849 17.275c-.276 1.666-2.104 2.622-3.632 1.792-1.278-.695-3.177-1.765-4.885-2.881-.854-.559-3.47-2.348-3.148-3.621.276-1.089 4.671-5.18 7.183-7.612.985-.956.536-1.507-.628-.628-2.892 2.182-7.532 5.501-9.066 6.435-1.354.824-2.06.965-2.903.824-1.54-.256-2.967-.653-4.133-1.136-1.574-.653-1.498-2.818-.001-3.449L22.971.898Z" fill="#232125"/></svg>