<svg width="28" height="28" fill="none" xmlns="http://www.w3.org/2000/svg"><path d="M23.334 4.543A13.09 13.09 0 0 0 13.99.667C6.711.667.78 6.597.773 13.877c0 2.331.61 4.6 1.761 6.608L.666 27.333l7.007-1.836a13.221 13.221 0 0 0 6.316 1.608h.007c7.28 0 13.21-5.93 13.217-13.217a13.163 13.163 0 0 0-3.879-9.345ZM13.99 24.868c-1.968.001-3.9-.529-5.593-1.533l-.4-.24-4.157 1.09 1.11-4.055-.26-.418a10.933 10.933 0 0 1-1.678-5.842c0-6.043 4.928-10.973 10.985-10.973a10.933 10.933 0 0 1 7.767 3.218 10.928 10.928 0 0 1 3.213 7.767c-.007 6.065-4.935 10.986-10.987 10.986Zm6.025-8.223c-.328-.165-1.95-.963-2.255-1.077-.303-.108-.525-.165-.741.165-.222.329-.855 1.077-1.045 1.292-.19.222-.387.247-.717.083-.328-.166-1.393-.513-2.653-1.641-.984-.875-1.642-1.959-1.839-2.287-.19-.33-.018-.507.147-.672.145-.146.328-.386.493-.576.167-.19.222-.33.33-.55.109-.224.057-.414-.025-.579-.083-.165-.741-1.793-1.02-2.45-.266-.648-.538-.558-.741-.566-.19-.012-.412-.012-.634-.012a1.215 1.215 0 0 0-.881.412c-.304.33-1.152 1.128-1.152 2.756 0 1.629 1.183 3.194 1.35 3.415.163.222 2.323 3.554 5.638 4.987.784.342 1.4.543 1.882.697.792.253 1.507.215 2.077.133.633-.097 1.951-.8 2.23-1.572.273-.773.273-1.433.19-1.571-.082-.14-.304-.222-.634-.387Z" fill="#232125"/></svg>