<svg width="28" height="28" fill="none" xmlns="http://www.w3.org/2000/svg"><g clip-path="url(#a)"><mask id="b" style="mask-type:luminance" maskUnits="userSpaceOnUse" x="0" y="0" width="28" height="28"><path d="M0 0h28v28H0V0Z" fill="#fff"/></mask><g mask="url(#b)"><path fill-rule="evenodd" clip-rule="evenodd" d="M28 14c0 7.732-6.268 14-14 14-7.731 0-14-6.268-14-14C0 6.269 6.269 0 14 0c7.732 0 14 6.269 14 14Zm-13.498-3.665c-1.362.566-4.084 1.739-8.165 3.517-.662.264-1.01.521-1.042.773-.053.427.481.595 1.207.823.099.031.202.063.307.098.715.232 1.676.504 2.176.514.453.01.96-.177 1.519-.56 3.812-2.575 5.78-3.875 5.904-3.903.087-.02.209-.046.29.028.082.072.074.21.066.247-.054.225-2.147 2.172-3.232 3.18a33.08 33.08 0 0 0-.626.588c-.11.114-.222.222-.33.326-.664.64-1.161 1.12.029 1.904.571.377 1.029.688 1.485.998.498.34.995.678 1.639 1.1.163.108.32.219.473.327.58.414 1.1.785 1.745.727.373-.035.76-.386.957-1.435.463-2.48 1.375-7.851 1.586-10.066a2.463 2.463 0 0 0-.023-.55.59.59 0 0 0-.2-.38c-.168-.136-.427-.165-.543-.163-.526.01-1.334.29-5.222 1.907Z" fill="#EAEAEA"/></g></g><defs><clipPath id="a"><path fill="#fff" d="M0 0h28v28H0z"/></clipPath></defs></svg>