<svg width="28" height="28" fill="none" xmlns="http://www.w3.org/2000/svg"><g clip-path="url(#a)"><path fill-rule="evenodd" clip-rule="evenodd" d="M14 0C6.268 0 0 6.268 0 14c0 2.646.735 5.124 2.013 7.235L.764 25.48a1.414 1.414 0 0 0 1.756 1.756l4.245-1.25A13.94 13.94 0 0 0 14 28c7.732 0 14-6.268 14-14S21.732 0 14 0Zm-3.167 17.168c2.832 2.831 5.536 3.205 6.49 3.24 1.452.053 2.866-1.056 3.417-2.342a.974.974 0 0 0-.124-.985c-.767-.98-1.804-1.684-2.818-2.384a.996.996 0 0 0-1.362.221l-.84 1.281a.32.32 0 0 1-.427.107c-.57-.326-1.4-.88-1.996-1.477-.597-.597-1.118-1.389-1.41-1.922a.317.317 0 0 1 .094-.408l1.293-.96a.997.997 0 0 0 .168-1.316c-.627-.919-1.358-2.086-2.418-2.86a.973.973 0 0 0-.957-.105c-1.288.551-2.403 1.965-2.35 3.42.036.955.41 3.658 3.24 6.49Z" fill="#EAEAEA"/></g><defs><clipPath id="a"><path fill="#fff" d="M0 0h28v28H0z"/></clipPath></defs></svg>